HIERARCHY
ROOT Hips
{
	OFFSET	0.00	0.00	0.00
	CHANNELS 6 Xposition Yposition Zposition Zrotation Xrotation Yrotation
	JOINT LeftUpLeg
	{
		OFFSET	 0.126116	-0.014019	-0.065224
		CHANNELS 3 Zrotation Xrotation Yrotation
		JOINT LeftLeg
		{
			OFFSET	 0.000000	 0.000000	 0.569914
			CHANNELS 3 Zrotation Xrotation Yrotation
			JOINT LeftFoot
			{
				OFFSET	 0.000000	 0.000000	 0.544423
				CHANNELS 3 Zrotation Xrotation Yrotation
				JOINT LeftToeBase
				{
					OFFSET	 0.000000	 0.000000	 0.207117
					CHANNELS 3 Zrotation Xrotation Yrotation
					End Site
					{
						OFFSET	 0.000000	 0.000000	 0.207117
					}
				}
			}
		}
	}
	JOINT RightUpLeg
	{
		OFFSET	-0.124023	-0.008373	-0.065224
		CHANNELS 3 Zrotation Xrotation Yrotation
		JOINT RightLeg
		{
			OFFSET	 0.000000	 0.000000	 0.570047
			CHANNELS 3 Zrotation Xrotation Yrotation
			JOINT RightFoot
			{
				OFFSET	 0.000000	 0.000000	 0.544354
				CHANNELS 3 Zrotation Xrotation Yrotation
				JOINT RightToeBase
				{
					OFFSET	 0.000000	 0.000000	 0.207540
					CHANNELS 3 Zrotation Xrotation Yrotation
					End Site
					{
						OFFSET	 0.000000	 0.000000	 0.207540
					}
				}
			}
		}
	}
	JOINT Spine
	{
		OFFSET	 0.000184	-0.007763	 0.117403
		CHANNELS 3 Zrotation Xrotation Yrotation
		JOINT Spine1
		{
			OFFSET	 0.000000	 0.000000	 0.137269
			CHANNELS 3 Zrotation Xrotation Yrotation
			JOINT Spine2
			{
				OFFSET	 0.000000	 0.000000	 0.156879
				CHANNELS 3 Zrotation Xrotation Yrotation
				JOINT LeftShoulder
				{
					OFFSET	 0.080501	-0.002496	 0.160144
					CHANNELS 3 Zrotation Xrotation Yrotation
					JOINT LeftArm
					{
						OFFSET	 0.000000	 0.000000	 0.164363
						CHANNELS 3 Zrotation Xrotation Yrotation
						JOINT LeftForeArm
						{
							OFFSET	 0.000000	 0.000000	 0.364576
							CHANNELS 3 Zrotation Xrotation Yrotation
							JOINT LeftHand
							{
								OFFSET	 0.000000	 0.000000	 0.360812
								CHANNELS 3 Zrotation Xrotation Yrotation
								JOINT LeftHandIndex1
								{
									OFFSET	 0.000000	 0.000000	 0.086006
									CHANNELS 3 Zrotation Xrotation Yrotation
									JOINT LeftHandIndex2
									{
										OFFSET	 0.000000	 0.000000	 0.047236
										CHANNELS 3 Zrotation Xrotation Yrotation
										JOINT LeftHandIndex3
										{
											OFFSET	-0.004284	-0.000551	 0.038166
											CHANNELS 3 Zrotation Xrotation Yrotation
											End Site
											{
												OFFSET	-0.004284	-0.000551	 0.038166
											}
										}
									}
								}
							}
						}
					}
				}
				JOINT Neck
				{
					OFFSET	 0.000000	 0.000000	 0.176489
					CHANNELS 3 Zrotation Xrotation Yrotation
					JOINT Head
					{
						OFFSET	 0.000000	-0.001747	 0.077940
						CHANNELS 3 Zrotation Xrotation Yrotation
						End Site
						{
							OFFSET	 0.000000	-0.001747	 0.077940
						}
					}
				}
				JOINT RightShoulder
				{
					OFFSET	-0.080363	 0.000306	 0.159706
					CHANNELS 3 Zrotation Xrotation Yrotation
					JOINT RightArm
					{
						OFFSET	 0.000000	 0.000000	 0.164196
						CHANNELS 3 Zrotation Xrotation Yrotation
						JOINT RightForeArm
						{
							OFFSET	 0.000000	 0.000000	 0.365611
							CHANNELS 3 Zrotation Xrotation Yrotation
							JOINT RightHand
							{
								OFFSET	 0.000000	 0.000000	 0.360648
								CHANNELS 3 Zrotation Xrotation Yrotation
								JOINT RightHandIndex1
								{
									OFFSET	 0.000000	 0.000000	 0.069977
									CHANNELS 3 Zrotation Xrotation Yrotation
									JOINT RightHandIndex2
									{
										OFFSET	 0.000000	 0.000000	 0.052305
										CHANNELS 3 Zrotation Xrotation Yrotation
										JOINT RightHandIndex3
										{
											OFFSET	 0.009002	-0.000782	 0.042196
											CHANNELS 3 Zrotation Xrotation Yrotation
											End Site
											{
												OFFSET	 0.009002	-0.000782	 0.042196
											}
										}
									}
								}
							}
						}
					}
				}
			}
		}
	}
}
MOTION
Frames:    7
Frame Time: 0.03333334
 6.900765	 6.956272	 0.768701	-88.415840	 0.656453	 3.704066	 5.055873	-3.961273	 176.474600	-11.262260	-33.719700	-5.162165	 171.886500	 86.611350	 179.444400	-2.377748	 30.128020	-0.036633	 1.770017	-12.654740	 178.934900	 3.654293	-47.613520	 5.716848	-175.327200	 82.145170	-178.730000	 2.403741	 22.105770	-0.130970	-2.873641	 0.756253	-1.910400	-3.773854	-1.999341	-0.438966	-4.108596	-4.033231	-0.415557	-91.809810	 77.624240	 179.118700	 36.814640	 69.877240	-39.869260	-7.963987	-3.995167	-19.808930	 5.915626	-2.217901	-5.334429	-3.812334	 37.924440	-2.927599	-2.450526	 36.184240	 0.754587	-1.378229	 35.397820	-2.634230	 0.552182	 6.077054	-3.204595	-0.719333	-13.422900	-1.882367	 89.765590	 79.252080	-179.646300	-36.439250	 70.312930	 39.116120	 4.215585	-7.830787	 30.773320	-11.305700	-3.196147	 9.596564	 6.437017	 35.671460	-0.771858	 2.830251	 35.756010	-7.813440	-2.350882	 35.473990	 5.254307
 6.898703	 6.955848	 0.768566	-88.342350	 0.667040	 3.697763	 5.050281	-4.002416	 176.482400	-11.229270	-33.769920	-5.153501	 171.937500	 86.555820	 179.420000	-2.377397	 30.194330	-0.038104	 1.760986	-12.674300	 178.967700	 3.661231	-47.647910	 5.723741	-175.423000	 82.080640	-178.636000	 2.403707	 22.124540	-0.130594	-2.879385	 0.777376	-1.927170	-3.789281	-1.993325	-0.432168	-4.137279	-4.026036	-0.418200	-91.809850	 77.613850	 179.127800	 36.747670	 69.874660	-39.767730	-7.983353	-4.005154	-19.920210	 5.897556	-2.216219	-5.335086	-3.812334	 37.924440	-2.927599	-2.450526	 36.184240	 0.754587	-1.378229	 35.397820	-2.634230	 0.521467	 6.063531	-3.200751	-0.748927	-13.394510	-1.881484	 89.765340	 79.261570	-179.645700	-36.401500	 70.345210	 39.106670	 4.235234	-7.816273	 30.668980	-11.319650	-3.196231	 9.596545	 6.437017	 35.671460	-0.771858	 2.830251	 35.756010	-7.813440	-2.350882	 35.473990	 5.254307
 6.900823	 6.954923	 0.768196	-88.173810	 0.714684	 3.705418	 5.034066	-4.125661	 176.502600	-11.138800	-33.929480	-5.133610	 171.978600	 86.397290	 179.450500	-2.376723	 30.322680	-0.040948	 1.774799	-12.734530	 178.979700	 3.704856	-47.783000	 5.782921	-175.660800	 81.878800	-178.374800	 2.403628	 22.166500	-0.129745	-2.887924	 0.799450	-1.970204	-3.812623	-1.980463	-0.440067	-4.187850	-4.012281	-0.422820	-91.809730	 77.594760	 179.146400	 36.631380	 69.848590	-39.609570	-8.034605	-4.026344	-20.201270	 5.841696	-2.212042	-5.336565	-3.812334	 37.924440	-2.927599	-2.450526	 36.184240	 0.754587	-1.378229	 35.397820	-2.634230	 0.472559	 5.971448	-3.247081	-0.796173	-13.276100	-1.837314	 89.764660	 79.279290	-179.637100	-36.307750	 70.415150	 39.051400	 4.265283	-7.775054	 30.398190	-11.349690	-3.197027	 9.596107	 6.437017	 35.671460	-0.771858	 2.830251	 35.756010	-7.813440	-2.350882	 35.473990	 5.254307
 6.907356	 6.954081	 0.767850	-88.060550	 0.762073	 3.732429	 5.017207	-4.246478	 176.522600	-11.050680	-34.094570	-5.115990	 171.970200	 86.248300	 179.527700	-2.376083	 30.440730	-0.043574	 1.835857	-12.821230	 178.973000	 3.789094	-47.989930	 5.911888	-175.961100	 81.676960	-178.010500	 2.403597	 22.185280	-0.129368	-2.888069	 0.803899	-2.000011	-3.815976	-1.980114	-0.465030	-4.205358	-4.014653	-0.424675	-91.809170	 77.600340	 179.156300	 36.591810	 69.803200	-39.589550	-8.078625	-4.038123	-20.423740	 5.784673	-2.207662	-5.337980	-3.812334	 37.924440	-2.927599	-2.450526	 36.184240	 0.754587	-1.378229	 35.397820	-2.634230	 0.467560	 5.839199	-3.406047	-0.791913	-13.149380	-1.659467	 89.764300	 79.273250	-179.626000	-36.260690	 70.460060	 39.031090	 4.264561	-7.743653	 30.169240	-11.382350	-3.198435	 9.595290	 6.437017	 35.671460	-0.771858	 2.830251	 35.756010	-7.813440	-2.350882	 35.473990	 5.254307
 6.911924	 6.952716	 0.767427	-87.985770	 0.810205	 3.734811	 5.000148	-4.394431	 176.554900	-10.933810	-34.306940	-5.087297	 171.955900	 86.067510	 179.638300	-2.375329	 30.579520	-0.046664	 1.871218	-13.008490	 178.970000	 4.011408	-48.408160	 6.152567	-176.132900	 81.441770	-177.718200	 2.403350	 22.322890	-0.126586	-2.880085	 0.847233	-1.996115	-3.822231	-2.007835	-0.499116	-4.228135	-4.052060	-0.428347	-91.807490	 77.633030	 179.171300	 36.592230	 69.724640	-39.669360	-8.126446	-4.044302	-20.648370	 5.712769	-2.202165	-5.339678	-3.812334	 37.924440	-2.927599	-2.450526	 36.184240	 0.754587	-1.378229	 35.397820	-2.634230	 0.455777	 5.610715	-3.525518	-0.803624	-13.000700	-1.559334	 89.764750	 79.237990	-179.622700	-36.296450	 70.499690	 39.160710	 4.232671	-7.726543	 29.908520	-11.455850	-3.200640	 9.594098	 6.437017	 35.671460	-0.771858	 2.830251	 35.756010	-7.813440	-2.350882	 35.473990	 5.254307
 6.911834	 6.951486	 0.767122	-87.985960	 0.823285	 3.721169	 5.017057	-4.492764	 176.592200	-10.868560	-34.453290	-5.057625	 172.057300	 85.946240	 179.618900	-2.374877	 30.661320	-0.048489	 1.934553	-13.220790	 178.992500	 4.149654	-48.839540	 6.356028	-176.195400	 81.304260	-177.572600	 2.402902	 22.564360	-0.121699	-2.884035	 0.916849	-1.961426	-3.857869	-2.023002	-0.516717	-4.289833	-4.073351	-0.435396	-91.805600	 77.670450	 179.187600	 36.601590	 69.658000	-39.757980	-8.154876	-4.044471	-20.773260	 5.664263	-2.198533	-5.340785	-3.812334	 37.924440	-2.927599	-2.450526	 36.184240	 0.754587	-1.378229	 35.397820	-2.634230	 0.386896	 5.533011	-3.481171	-0.872001	-12.972910	-1.661506	 89.765140	 79.198790	-179.617000	-36.345800	 70.527660	 39.315220	 4.213982	-7.722920	 29.739160	-11.518780	-3.202152	 9.593294	 6.437017	 35.671460	-0.771858	 2.830251	 35.756010	-7.813440	-2.350882	 35.473990	 5.254307
 6.911677	 6.949783	 0.766734	-88.029430	 0.831391	 3.676280	 5.077624	-4.601765	 176.682300	-10.813460	-34.624000	-5.005213	 172.246200	 85.805310	 179.551100	-2.374475	 30.735570	-0.050141	 2.075297	-13.601110	 179.059500	 4.294952	-49.565770	 6.662548	-176.249300	 81.182180	-177.419000	 2.401947	 23.038260	-0.112078	-2.899717	 1.052532	-1.876990	-3.934902	-2.035489	-0.531035	-4.405561	-4.093013	-0.447902	-91.802630	 77.729830	 179.217300	 36.622080	 69.562680	-39.906970	-8.183587	-4.041079	-20.891930	 5.609125	-2.194566	-5.341997	-3.812334	 37.924440	-2.927599	-2.450526	 36.184240	 0.754587	-1.378229	 35.397820	-2.634230	 0.251370	 5.571017	-3.329122	-1.003448	-13.061180	-1.911346	 89.766330	 79.137020	-179.619900	-36.404390	 70.561560	 39.511700	 4.207122	-7.714257	 29.544090	-11.583450	-3.203670	 9.592471	 6.437017	 35.671460	-0.771858	 2.830251	 35.756010	-7.813440	-2.350882	 35.473990	 5.254307
